<?xml version="1.0" encoding="UTF-8"?>
<svg xmlns="http://www.w3.org/2000/svg" xmlns:xlink="http://www.w3.org/1999/xlink" viewBox="0 0 512 512">
  <defs>
    <style>
      .cls-1 {
        fill: #fbed8c;
      }

      .cls-2 {
        fill: url(#linear-gradient-2);
      }

      .cls-3, .cls-4, .cls-5, .cls-6, .cls-7, .cls-8, .cls-9, .cls-10 {
        fill: none;
        stroke-miterlimit: 10;
      }

      .cls-3, .cls-7 {
        stroke: #230908;
      }

      .cls-3, .cls-9 {
        stroke-width: 1.69px;
      }

      .cls-11 {
        fill: #871319;
      }

      .cls-12 {
        fill: #f33e28;
      }

      .cls-13 {
        fill: #630f17;
      }

      .cls-4 {
        stroke-width: 1.73px;
      }

      .cls-4, .cls-5, .cls-8 {
        stroke: #c4d1df;
      }

      .cls-14 {
        fill: url(#linear-gradient-4);
      }

      .cls-5 {
        stroke-width: 1.82px;
      }

      .cls-15 {
        opacity: .18;
      }

      .cls-15, .cls-16 {
        mix-blend-mode: multiply;
      }

      .cls-6 {
        stroke-width: 3.37px;
      }

      .cls-6, .cls-9 {
        stroke: #f33e28;
      }

      .cls-17 {
        fill: #1a0d09;
      }

      .cls-18 {
        fill: url(#linear-gradient-3);
      }

      .cls-19 {
        isolation: isolate;
      }

      .cls-20 {
        fill: #e23d3d;
      }

      .cls-21 {
        fill: #ff4940;
      }

      .cls-7 {
        stroke-width: 1.27px;
      }

      .cls-8 {
        stroke-width: 1.58px;
      }

      .cls-22 {
        fill: #1c192f;
      }

      .cls-23 {
        fill: #484555;
      }

      .cls-24 {
        fill: #373445;
      }

      .cls-25 {
        fill: #232323;
      }

      .cls-26 {
        fill: #222c3d;
      }

      .cls-27 {
        fill: #0a0202;
      }

      .cls-28 {
        fill: url(#linear-gradient-6);
      }

      .cls-29 {
        fill: #050b19;
      }

      .cls-30 {
        fill: #0c2031;
      }

      .cls-31 {
        fill: #c4d1df;
      }

      .cls-32 {
        fill: url(#linear-gradient-7);
      }

      .cls-32, .cls-33 {
        mix-blend-mode: screen;
      }

      .cls-34 {
        fill: #ff7471;
      }

      .cls-35 {
        fill: #dcdddd;
      }

      .cls-36 {
        fill: #230908;
      }

      .cls-37 {
        fill: url(#linear-gradient);
      }

      .cls-16 {
        fill: #6d6d6d;
        opacity: .31;
      }

      .cls-10 {
        stroke: #871319;
        stroke-width: 5.06px;
      }

      .cls-33 {
        fill: url(#linear-gradient-5);
      }
    </style>
    <linearGradient id="linear-gradient" x1="229.71" y1="346.95" x2="257.92" y2="346.95" gradientUnits="userSpaceOnUse">
      <stop offset="0" stop-color="#00000d"/>
      <stop offset="1" stop-color="#1e192b"/>
    </linearGradient>
    <linearGradient id="linear-gradient-2" x1="320.37" y1="352.81" x2="375.96" y2="352.81" xlink:href="#linear-gradient"/>
    <linearGradient id="linear-gradient-3" x1="215.57" y1="176.62" x2="261.66" y2="176.62" gradientUnits="userSpaceOnUse">
      <stop offset="0" stop-color="#98d9d9"/>
      <stop offset="1" stop-color="#c9e4e7"/>
    </linearGradient>
    <linearGradient id="linear-gradient-4" x1="257.35" y1="172.38" x2="400.35" y2="172.38" xlink:href="#linear-gradient-3"/>
    <linearGradient id="linear-gradient-5" x1="337" y1="174.65" x2="376.28" y2="174.65" xlink:href="#linear-gradient-3"/>
    <linearGradient id="linear-gradient-6" x1="112.76" x2="138.2" xlink:href="#linear-gradient"/>
    <linearGradient id="linear-gradient-7" x1="281.46" y1="242.44" x2="292.01" y2="242.44" xlink:href="#linear-gradient-3"/>
  </defs>
  <g class="cls-19">
    <g id="Layer_1" data-name="Layer 1">
      <g>
        <g>
          <g>
            <path d="M424.06,198.81c-.34,1.24-1.11,2.16-1.42,3.47-.25,1.09-.75,1.81-1.7,2.41-1.07.68-2.37.83-3.6,1.05l-.1.04.03.29-.26.02c-.62.93-1.24,1.86-1.89,2.77-1.59.63-3.34.86-4.98,1.29-2.56.68-5.15,1.53-7.64,2.42l-.27.05c-.49.15-.79.44-1.16.76l-.44-2.02c.31-.41.32-.65.33-1.15v-.17c.37-.31.79-.25,1.27-.29-.47-.03-.8.02-1.2-.26l-.05-.63c3.73-1.26,7.68-2.01,11.35-3.42-1.72-.26-3.27-.84-4.31-2.33-2.01-2.87-.76-11.06-.08-14.44.5-2.45,1.39-4.79,3.58-6.22,1.94-1.27,4.95-2.19,7.23-1.64,1.64.38,2.94,1.41,3.78,2.87,1.9,3.32,2.55,11.49,1.54,15.12Z"/>
            <path class="cls-35" d="M415.07,182.49c1.46-.49,3.4-.48,4.79.22.41.21.75.45,1.07.78l-.45.17c-1.79-.6-3.4-.63-5.25-.42-.26-.08-.46-.18-.69-.32.24-.11.14-.04.36-.26.06-.06.11-.12.17-.17Z"/>
            <path class="cls-35" d="M409.51,188.6c.33-1.28.63-2.54,1.39-3.65,1.01-1.48,2.47-2.1,4.17-2.46-.06.06-.11.12-.17.17-.22.22-.12.15-.36.26.23.14.44.24.69.32-1.53.42-3.24,1-4.13,2.39-.41,1.1-.7,2.58-1.32,3.54-.09-.19-.19-.38-.26-.58Z"/>
            <path class="cls-17" d="M415.55,205.46c-.25.79-1.51,1.48-2.23,1.83-.72.35-1.7.45-2.48.63-2.09.52-7.1,1.68-8.72,2.75-.37.25-.42.41-.59.81.06.38.23.69.58.93.16.1.23.11.4.17l-.27.05c-.49.15-.79.44-1.16.76l-.44-2.02c.31-.41.32-.65.33-1.15v-.17c.37-.31.79-.25,1.27-.29,3.34-1.27,10.44-2.37,12.79-4.55l.34-.02.2.27Z"/>
            <path class="cls-22" d="M411.1,185.64c.26.18.8.44.94.71.56,1.19,1.83,1.95,2.54,3.1.24,1.84.22,3.72.18,5.58-.02.77-.35,3.19-.21,3.7.06.2.18.38.27.56.34.23.57.24.98.27-.58.28-.73.87-.97,1.43-1.33.34-2.65.69-3.96,1.09-.43-.63-.93-1.21-1.34-1.85-.73-1.13-.74-7.7-.59-9.2.08-.81.38-1.64.58-2.43.07.2.17.39.26.58.62-.96.92-2.44,1.32-3.54Z"/>
            <path class="cls-23" d="M415.23,183.25c1.85-.21,3.46-.18,5.25.42l.45-.17c2.21,2.22,2.22,7.1,2.21,10.02,0,1.5-.03,2.93-.37,4.4-1.18-.95-2.51-1.67-4.08-1.48-.36.04-.71.16-1.06.27-.44.87-.97,2.41-1.85,2.86-.41-.03-.64-.04-.98-.27-.09-.19-.21-.36-.27-.56-.14-.51.19-2.93.21-3.7.04-1.85.06-3.74-.18-5.58-.71-1.15-1.98-1.91-2.54-3.1-.14-.27-.67-.53-.94-.71.89-1.39,2.6-1.98,4.13-2.39Z"/>
            <path class="cls-24" d="M412.03,186.35c1.25.95,2.08,1.83,2.89,3.2.04,2.64.06,5.29.06,7.93.91-.45,1.61-.83,2.66-.79-.44.87-.97,2.41-1.85,2.86-.41-.03-.64-.04-.98-.27-.09-.19-.21-.36-.27-.56-.14-.51.19-2.93.21-3.7.04-1.85.06-3.74-.18-5.58-.71-1.15-1.98-1.91-2.54-3.1Z"/>
          </g>
          <path class="cls-16" d="M284.41,374.08c-14.27-.67-43.36-1.98-62.35-2.71-18.99-.73-80.04-3.28-90.49-.3s-52.64,7.41-14.64,11.63c46.52,5.17,267.59,8.61,274.53,8.05,21.96-1.76-42.8-13.65-107.05-16.67Z"/>
          <g>
            <line class="cls-9" x1="101.89" y1="164.48" x2="204.02" y2="161.99"/>
            <line class="cls-9" x1="111.91" y1="161.12" x2="214.04" y2="158.64"/>
            <line class="cls-9" x1="121.57" y1="157.39" x2="223.7" y2="154.9"/>
            <line class="cls-9" x1="131.23" y1="153.65" x2="233.36" y2="151.16"/>
            <line class="cls-9" x1="140.89" y1="149.91" x2="243.02" y2="147.42"/>
            <line class="cls-9" x1="150.55" y1="146.17" x2="252.67" y2="143.68"/>
            <line class="cls-9" x1="160.21" y1="142.43" x2="262.33" y2="139.95"/>
            <line class="cls-9" x1="169.86" y1="138.69" x2="271.99" y2="136.21"/>
            <line class="cls-9" x1="179.52" y1="134.96" x2="281.65" y2="132.47"/>
            <line class="cls-9" x1="189.18" y1="131.22" x2="291.31" y2="128.73"/>
          </g>
          <polyline class="cls-6" points="91.39 170.36 189.79 164.66 311.06 141.93"/>
          <g>
            <path class="cls-24" d="M274.93,346.95c0-17.48-6.14-31.67-13.78-32.06v-.04h-17.34v64.19h16.86c.05,0,.1.02.15.02s.1-.02.15-.02h.17v-.02c7.64-.39,13.78-14.58,13.78-32.06Z"/>
            <ellipse class="cls-37" cx="243.82" cy="346.95" rx="14.1" ry="32.1"/>
            <ellipse class="cls-5" cx="243.82" cy="346.95" rx="7.61" ry="17.32"/>
            <ellipse class="cls-31" cx="244.89" cy="346.95" rx="5.58" ry="12.69"/>
          </g>
          <path class="cls-30" d="M89.59,300.07s.73,2.26,4.85,2.34c1.29,3.47,2.75,7.27,2.75,7.27,0,0,5.01-.89,5.09,6.38h38.04l11.95,24.63,6.38-.57s-2.67-7.51,0-7.83,7.91-.81,7.91-.81c0,0,4.28,5.98,9.13,5.98h5.25s1.05,4.12,6.54,4.76c5.49.65,13.41,0,13.41,0l9.61-10.66h7.27s7.43-37.47-17.28-40.7c-24.71-3.23-110.88,7-110.88,7v2.21Z"/>
          <path class="cls-26" d="M391.84,316.06s2.6,5.41,1.58,18.17c-10.85,0-49.97.65-49.97.65,0,0-9.18,4.52-10.94,4.52h-7.97s2.6-20.76,4.82-21.56c2.23-.81,62.49-1.78,62.49-1.78Z"/>
          <g>
            <ellipse class="cls-24" cx="365.12" cy="352.81" rx="27.79" ry="35.29"/>
            <rect class="cls-24" x="348.16" y="317.52" width="17.49" height="70.57"/>
            <ellipse class="cls-2" cx="348.16" cy="352.81" rx="27.79" ry="35.29"/>
            <ellipse class="cls-8" cx="348.16" cy="352.81" rx="14.61" ry="18.55"/>
            <ellipse class="cls-31" cx="348.16" cy="352.81" rx="10.56" ry="13.41"/>
          </g>
          <rect class="cls-12" x="89.59" y="168.03" width="2.42" height="48.78"/>
          <polygon class="cls-12" points="89.63 171.87 89.63 168.23 196.03 126.12 196.01 130.15 89.63 171.87"/>
          <polygon class="cls-12" points="196.03 198.56 192.31 198.56 192.31 128.48 196.03 126.12 196.03 198.56"/>
          <polygon class="cls-11" points="196.03 198.56 199.74 198.56 199.74 126.49 196.03 126.12 196.03 198.56"/>
          <polygon class="cls-12" points="194.73 293.61 89.59 300.07 89.59 214.3 194.73 197.02 194.73 293.61"/>
          <rect class="cls-11" x="196.08" y="126.17" width="40.16" height="3.77"/>
          <polygon class="cls-13" points="194.73 293.61 209.97 293.04 210.29 197.51 194.73 197.02 194.73 293.61"/>
          <g>
            <path class="cls-12" d="M273.07,352.56s15.51,1.62,45.44,0c2.69-.65,5.06-1.72,6.89-7.21,1.83-5.49,4.52-23.8,4.52-23.8,0,0,.54-3.23,4.63-3.23h50.82s5.17-1.08,6.46,7.11c1.29,8.18,2.37,16.91-1.62,26.38,10.12,0,20.14,2.26,24.87-8.94.75-7.75,2.48-27.24,1.4-28.53s-2.26-3.55-2.26-3.55c0,0-.11-24.44-1.08-32.52.86-3.66.86-21.97,1.4-26.81s-1.08-20.89-4.63-25.63c-3.45-2.37-4.74-2.69-4.74-2.69,0,0-1.94-14.64-18.84-51.58-16.91-36.93-16.91-32.09-16.91-32.09-46.01-5.23-84.95-8.07-117.15-8.61l-6,1.8,17.74,72.6,19.32,14.05s-5.21,1.88-7.47,11.79c-2.26,9.91-6.03,41.89,13.14,51.79,0,23.04,2.37,55.13-6.03,62.24-8.4,7.11-9.91,7.43-9.91,7.43Z"/>
            <path class="cls-7" d="M273.07,352.56s15.51,1.62,45.44,0c2.69-.65,5.06-1.72,6.89-7.21,1.83-5.49,4.52-23.8,4.52-23.8,0,0,.54-3.23,4.63-3.23h50.82s5.17-1.08,6.46,7.11c1.29,8.18,2.37,16.91-1.62,26.38,10.12,0,20.14,2.26,24.87-8.94.75-7.75,2.48-27.24,1.4-28.53s-2.26-3.55-2.26-3.55c0,0-.11-24.44-1.08-32.52.86-3.66.86-21.97,1.4-26.81s-1.08-20.89-4.63-25.63c-3.45-2.37-4.74-2.69-4.74-2.69,0,0-1.94-14.64-18.84-51.58-16.91-36.93-16.91-32.09-16.91-32.09-46.01-5.23-84.95-8.07-117.15-8.61l-6,1.8,17.74,72.6,19.32,14.05s-5.21,1.88-7.47,11.79c-2.26,9.91-6.03,41.89,13.14,51.79,0,23.04,2.37,55.13-6.03,62.24-8.4,7.11-9.91,7.43-9.91,7.43Z"/>
          </g>
          <path class="cls-11" d="M407.72,350.65c-4.96,2.04-11.2,1.16-17.49,1.16,3.98-9.48,2.9-18.2,1.62-26.38-.67-4.27-2.41-6.02-3.9-6.71,18.13,2.01,19.94,22.44,19.77,31.93Z"/>
          <path class="cls-26" d="M397.83,350.65c-.03,2.92-.24,4.82-.24,4.82,0,0-21.21.15-30.11.15,1.55-20.34-10.56-27.9-22.3-27.9s-16.87,3.86-16.87,3.86c.8-5.35,1.4-10.04,1.4-10.04,0,0,.47-3.24,4.06-3.24h43.07c1.24.12,2.44.24,3.62.39h.04v.02c15.89,2.01,17.47,22.44,17.32,31.93Z"/>
          <path class="cls-11" d="M248.36,131.93l-35.86,12.6-9.37,74.94-4.52,6.46v65.9s16.47,4.68,16.96,27.62c.48,22.94-.32,31.98,2.26,33.11h57.98s12.44-2.91,15.02-23.42c.65-6.14-.97-46.36-.97-48.13s-13.57-5.17-14.05-25.52c-.48-20.35.81-26.81,6.46-28.27,5.65-1.45,4.36-1.78,4.36-1.78l.16-8.24s-20.16-9.85-21.32-12.6c-1.61-3.81-17.12-72.68-17.12-72.68Z"/>
          <path class="cls-18" d="M218.15,149.91l-2.58,66.11,46.09-10.34-14.86-68.48s-26.92,9.69-28.64,12.71Z"/>
          <path class="cls-14" d="M258.21,135s27.94-.48,63.64,2.91,50.39,7.43,50.39,7.43c0,0,23.42,45.23,28.1,64.45-15.02-1.13-113.55-7.59-127.44-6.46-2.58-1.94-3.07-2.75-6.46-18.57-3.39-15.83-11.79-47.65-8.24-49.75Z"/>
          <path class="cls-3" d="M258.21,135s27.94-.48,63.64,2.91,50.39,7.43,50.39,7.43c0,0,23.42,45.23,28.1,64.45-15.02-1.13-113.55-7.59-127.44-6.46-2.58-1.94-3.07-2.75-6.46-18.57-3.39-15.83-11.79-47.65-8.24-49.75Z"/>
          <path class="cls-20" d="M253.37,131.53s-.73-8.96-6.06-8.56c-5.33.4-24.23,7.83-29.96,13.65-3.47,3.88-4.28,5.09-4.28,5.09l-.57,2.83,35.37-11.14,5.49-1.86Z"/>
          <path class="cls-21" d="M368.07,139.31s-6.38-9.21-15.21-10.72c-8.83-1.51-81.3-13-106.06-5.64,1.4,4.02,4.52,10.79,4.52,10.79,0,0,22.07-2.35,51.26-.41,29.18,1.94,65.5,5.98,65.5,5.98Z"/>
          <path class="cls-29" d="M317.81,241.55s5.44.48,5.98,4.95,2.26,16.31-1.62,23.1c0,0-.11,3.45-5.87,3.82-5.76.38-17.01-.65-17.87-1.13s-3.82-1.67-4.09-8.99.65-17.17,5.81-20.51c2.26-1.13,15.4-1.18,17.66-1.24Z"/>
          <path class="cls-1" d="M315.95,243.62s3.15-.32,3.55,3.55c.4,3.88,2.02,13.16-.65,22.37-.73,2.58-1.78,2.99-4.2,2.99s-14.54-.89-14.54-.89c0,0-2.34.08-3.55-4.52s-1.29-15.75,1.13-20.35c1.05-1.78,2.99-3.16,6.46-3.16s11.79,0,11.79,0Z"/>
          <path class="cls-29" d="M410.9,248.98s.38-3.66-5.33-4.52-12.95-.72-14.91.54c-2.46,1.57-2.26,22.77,2.21,28.59,2.1,1.94,3.12,2.05,9.37,2.75,4.2.32,6.7,1.18,9.33-4.63,2.63-5.81-.66-22.72-.66-22.72Z"/>
          <path class="cls-1" d="M395.34,246.28s-3.23-.16-3.63,3.71c-.4,3.88-.64,12.11,2.02,21.32.73,2.58,2.76,3.43,5.17,3.71,2.75.32,8.4.65,8.4.65,0,0,2.34.08,3.55-4.52,1.21-4.6.97-16.72-1.45-21.32-1.05-1.78-1.53-3.55-5.01-3.55h-9.05Z"/>
          <path class="cls-34" d="M294.07,237.72s.38-9.48-1.24-11.74c-5.06,0-14.86-1.54-16.42,10.08-1.56,11.62-3.34,21.17,2.21,32.66,5.55,11.48,10.82,10.35,10.82,10.35,0,0-.38-19.01.19-24.35.65-6.04,4.52-13.62,4.44-17Z"/>
          <path class="cls-34" d="M403.25,224.24s1.05,14.1.65,17.83c3.71.99,8.3,2.36,8.67,14.15.37,11.79-.85,15.07-.85,15.07,0,0,2.43.84,2.84-1.26s-.57-13.97,0-16.23,1.21-7.35-.48-16.07c-1.7-8.72-.89-11.95-5.33-13.49-4.44-1.53-5.49,0-5.49,0Z"/>
          <path class="cls-26" d="M290.14,218.13l1.94,7.48s.38-2.26,58.36.65c38.44,1.78,52.82,3.23,52.82,3.23v-7.03s-24.79-3.58-53.06-4.33c-28.27-.75-60.06-.43-60.06-.43"/>
          <path class="cls-33" d="M337,144.29s9.78,6.9,12.06,24.55c2.28,17.65,11.31,36.18,10.34,36.18s16.87,0,16.87,0c0,0-11.49-37.04-12.35-41.78s-7.61-16.61-7.61-16.61l-19.3-2.35Z"/>
          <path class="cls-25" d="M334.88,192.5s22.5-.27,33,4.31c-2.72-2.72-8.13-4.58-16.5-5.28-8.37-.7-12.25-.75-13.33-.75s-2.37.38-3.18,1.72Z"/>
          <path class="cls-25" d="M380.7,209.24s2.8,4.25,6.19,2.48c3.39-1.78-1.24-4.95-4.47-6.84-11.36-6.14-13.84-8.61-19.06-9.31,6.3,3.34,17.34,13.68,17.34,13.68Z"/>
          <path class="cls-26" d="M113.56,312.05h-24.95v7s4.52-.81,5.01,2.83,0,6.78,0,6.78h9.53s1.78-4.68,6.62-4.68,3.79-11.92,3.79-11.92Z"/>
          <path class="cls-25" d="M281.46,189.67s22.5-.27,33,4.31c-2.72-2.72-8.13-4.58-16.5-5.28-8.37-.7-12.25-.75-13.33-.75s-2.37.38-3.18,1.72Z"/>
          <path class="cls-25" d="M327.27,206.42s2.8,4.25,6.19,2.48-1.24-4.95-4.47-6.84c-11.36-6.14-13.84-8.61-19.06-9.31,6.3,3.34,17.34,13.68,17.34,13.68Z"/>
          <path class="cls-26" d="M391.87,315.09h-72.21c-1.53,0-2.77-1.24-2.77-2.77v-27.36c0-1.55,1.27-2.8,2.82-2.77l74.99,1.57c1.62.03,2.87,1.45,2.69,3.06l-2.78,25.79c-.15,1.4-1.34,2.47-2.75,2.47Z"/>
          <polygon class="cls-27" points="394.42 291.62 319.7 290.54 319.7 288.39 394.42 289.46 394.42 291.62"/>
          <polygon class="cls-27" points="394.42 298.65 319.7 297.57 319.7 295.42 394.42 296.49 394.42 298.65"/>
          <polygon class="cls-27" points="394.42 305.67 319.7 304.6 319.7 302.44 394.42 303.52 394.42 305.67"/>
          <g>
            <path class="cls-26" d="M102.83,331s-1.7,12.6-3.47,18.49c-.32,2.18,4.68.48,9.21-.32,4.52-.81,10.66-1.21,10.66-1.21,0,0-1.45-23.26,2.99-24.47s23.66,5.25,23.66,5.25l-10.42-20.11-21.64,6.22-6.22,14.78-4.76,1.37Z"/>
            <g>
              <path class="cls-24" d="M153.55,346.95c0-17.48-5.54-31.67-12.43-32.06v-.04h-15.64v64.19h15.21s.09.02.13.02.09-.02.13-.02h.16v-.02c6.89-.39,12.43-14.58,12.43-32.06Z"/>
              <ellipse class="cls-28" cx="125.48" cy="346.95" rx="12.72" ry="32.1"/>
              <ellipse class="cls-4" cx="125.48" cy="346.95" rx="6.86" ry="17.32"/>
              <ellipse class="cls-31" cx="126.45" cy="346.95" rx="5.03" ry="12.69"/>
            </g>
            <path class="cls-26" d="M102.83,331s1.94-.97,3.31-1.7,2.38-21.08,17.87-22.85c15.49-1.78,32.61,2.83,35.27,33.11h-17.12s-4.36-22.77-15.71-22.77-11.27.89-11.27.89l-2.1,12.84-10.26.48Z"/>
          </g>
          <g>
            <line class="cls-10" x1="89.63" y1="225.75" x2="194.73" y2="207.86"/>
            <line class="cls-10" x1="89.63" y1="243.36" x2="194.73" y2="225.75"/>
            <line class="cls-10" x1="89.63" y1="257.44" x2="194.73" y2="242.81"/>
            <line class="cls-10" x1="89.63" y1="273.57" x2="194.73" y2="260.77"/>
            <line class="cls-10" x1="89.63" y1="288" x2="194.73" y2="279.4"/>
          </g>
          <path class="cls-32" d="M281.46,231.08s3.91-2.69,5.34-2.69h4.88s.75,6.78,0,11.2-2.64,8.99-4.09,16.91c-.48-2.05,2.05-18.09.86-20.35-1.18-2.26-6.99-5.06-6.99-5.06Z"/>
          <g>
            <path d="M246.44,198.6c.34,1.24,1.11,2.16,1.42,3.47.25,1.09.75,1.81,1.7,2.41,1.07.68,2.37.83,3.6,1.05l.1.04-.03.29.26.02c.62.93,1.24,1.86,1.89,2.77,1.59.63,3.34.86,4.98,1.29,2.56.68,5.15,1.53,7.64,2.42l.27.05c.49.15.79.44,1.16.76l.44-2.02c-.31-.41-.32-.65-.33-1.15v-.17c-.37-.31-.79-.25-1.27-.29.47-.03.8.02,1.2-.26l.05-.63c-3.73-1.26-7.68-2.01-11.35-3.42,1.72-.26,3.27-.84,4.31-2.33,2.01-2.87.76-11.06.08-14.44-.5-2.45-1.39-4.79-3.58-6.22-1.94-1.27-4.95-2.19-7.23-1.64-1.64.38-2.94,1.41-3.78,2.87-1.9,3.32-2.55,11.49-1.54,15.12Z"/>
            <path class="cls-35" d="M255.43,182.28c-1.46-.49-3.4-.48-4.79.22-.41.21-.75.45-1.07.78l.45.17c1.79-.6,3.4-.63,5.25-.42.26-.08.46-.18.69-.32-.24-.11-.14-.04-.36-.26-.06-.06-.11-.12-.17-.17Z"/>
            <path class="cls-35" d="M260.99,188.39c-.33-1.28-.63-2.54-1.39-3.65-1.01-1.48-2.47-2.1-4.17-2.46.06.06.11.12.17.17.22.22.12.15.36.26-.23.14-.44.24-.69.32,1.53.42,3.24,1,4.13,2.39.41,1.1.7,2.58,1.32,3.54.09-.19.19-.38.26-.58Z"/>
            <path class="cls-17" d="M254.95,205.24c.25.79,1.51,1.48,2.23,1.83.72.35,1.7.45,2.48.63,2.09.52,7.1,1.68,8.72,2.75.37.25.42.41.59.81-.06.38-.23.69-.58.93-.16.1-.23.11-.4.17l.27.05c.49.15.79.44,1.16.76l.44-2.02c-.31-.41-.32-.65-.33-1.15v-.17c-.37-.31-.79-.25-1.27-.29-3.34-1.27-10.44-2.37-12.79-4.55l-.34-.02-.2.27Z"/>
            <path class="cls-22" d="M259.4,185.43c-.26.18-.8.44-.94.71-.56,1.19-1.83,1.95-2.54,3.1-.24,1.84-.22,3.72-.18,5.58.02.77.35,3.19.21,3.7-.06.2-.18.38-.27.56-.34.23-.57.24-.98.27.58.28.73.87.97,1.43,1.33.34,2.65.69,3.96,1.09.43-.63.93-1.21,1.34-1.85.73-1.13.74-7.7.59-9.2-.08-.81-.38-1.64-.58-2.43-.07.2-.17.39-.26.58-.62-.96-.92-2.44-1.32-3.54Z"/>
            <path class="cls-23" d="M255.27,183.03c-1.85-.21-3.46-.18-5.25.42l-.45-.17c-2.21,2.22-2.22,7.1-2.21,10.02,0,1.5.03,2.93.37,4.4,1.18-.95,2.51-1.67,4.08-1.48.36.04.71.16,1.06.27.44.87.97,2.41,1.85,2.86.41-.03.64-.04.98-.27.09-.19.21-.36.27-.56.14-.51-.19-2.93-.21-3.7-.04-1.85-.06-3.74.18-5.58.71-1.15,1.98-1.91,2.54-3.1.14-.27.67-.53.94-.71-.89-1.39-2.6-1.98-4.13-2.39Z"/>
            <path class="cls-24" d="M258.46,186.14c-1.25.95-2.08,1.83-2.89,3.2-.04,2.64-.06,5.29-.06,7.93-.91-.45-1.61-.83-2.66-.79.44.87.97,2.41,1.85,2.86.41-.03.64-.04.98-.27.09-.19.21-.36.27-.56.14-.51-.19-2.93-.21-3.7-.04-1.85-.06-3.74.18-5.58.71-1.15,1.98-1.91,2.54-3.1Z"/>
          </g>
        </g>
        <g class="cls-15">
          <path d="M217.25,172.94l-1.68,43.08,26.22-5.88s-18.49-.17-20.64-5.99c-.86-8.51-3.89-31.21-3.89-31.21Z"/>
          <path d="M229.87,143.76l16.92-6.56,7.75,35.74s-7.96-28.87-12.34-29.62c-4.37-.75-12.34.44-12.34.44Z"/>
          <path d="M262.9,169.17l6.33,27.64s1.82,6.32,3.68,6.51,22,.31,22,.31c0,0-18.74-2.11-23.47-12.1-4.74-9.98-13.11-44.25-13.11-44.25l4.58,21.89Z"/>
          <path d="M332.39,138.99s22.32,2.01,39.85,6.35c8.92,16.72,17.59,36.6,17.59,36.6,0,0-12.77-30.22-23-33.45s-34.44-9.5-34.44-9.5Z"/>
          <path d="M281.46,226.88s-8.08,10.98-5.66,33.38c-6.52-5.71-.69-34.24,5.66-33.38Z"/>
          <path d="M400.83,222.13s2.39,6.67,3.07,19.94c1.73-11.85,2.79-20.83-3.07-19.94Z"/>
          <path d="M289.44,279.07s2.59,36.96,1.55,49.56c-1.04,12.6-8.55,19.83-8.55,19.83,0,0,6.11-6.15,6.11-24.89s-6.11-48.64-6.11-48.64c0,0,3.36,4.75,7,4.14Z"/>
          <path d="M89.59,214.3v85.77l53.81-3.31s-48.61,2.74-48.61-19.38c0-17.95-5.2-63.08-5.2-63.08Z"/>
          <path d="M180.23,321.96s-3.69,16.85,5.74,19.97c-2.51-12.22-.9-19.09-.9-19.09l-4.85-.88Z"/>
          <path d="M176.66,294.72l25.31-1.38s13.67,5.68,13.77,26.52c-12.09-20.03-11.29-26.85-39.08-25.14Z"/>
          <path d="M166.52,331.49s-2.28-13.57-4.22-17.61c-1.94-4.04-16.43-3.29-16.43-3.29,0,0,10.77,1.19,12.71,6.52s7.93,14.38,7.93,14.38Z"/>
          <path d="M325.43,232.07l62.52,2.49s-8.25,5.02-8.09,10.76h-48.3s1.62-10.75-6.13-13.25Z"/>
          <path d="M414.24,310.78l2.26,3.55s-.66,3.16-13.07,3.7c-12.41.53-112.2,0-112.2,0v-2.94h113.03s9.3-.78,9.98-4.31Z"/>
          <path d="M215.57,216.03l-3.07,3.37v64.31s14.68,16.72,12.95,44.29h54.92l-50.5-3.66s2.47-23.11-11.96-40.63c-1.29-20.1-2.35-67.67-2.35-67.67Z"/>
          <path d="M246.8,122.95l3.85,10.79s10.74-1.68,33.76-1.14c-18.98-1.96-31.17-1.4-31.17-1.4l-6.44-8.25Z"/>
          <path d="M222.06,133.06s-10.19,6.97-9.58,11.6c4.01-1.02,7.19-2.39,7.19-2.39,0,0-1.49-4.21,2.39-9.21Z"/>
          <path d="M327.94,331.17l1.78-9.61s.07-2.73,3.83-3.34,38.48,0,38.48,0c0,0-36.91.6-39.09,4.8s-3.51,11.15-5.95,15.75c1.04-5.54.94-7.6.94-7.6Z"/>
          <path d="M367.48,355.63s1.05-14.76-5.67-21.04-16.29-7.85-25.88-5.94c-9.59,1.92-7.62,3.75-7.62,3.75l-1.65,7.94s4.98-9.45,21.5-7.62c16.52,1.83,19.32,22.9,19.32,22.9Z"/>
          <path d="M291.23,329.63s-.85,11.79-4.73,15.75c-3.88,3.96-8.58,6.34-8.58,6.34,0,0,23.43,1.17,39.5-.29,7.19-1.21,7.21-8.4,9.56-21"/>
        </g>
        <path class="cls-36" d="M369.44,139.47c-19.35-1.78-38.69-3.54-58.07-5.02-19.3-1.35-38.76-3.12-58.09-2.42,0,0,.28-.07.28-.07l-4.69,2.09.46-.93c4.03,17.1,11.92,51.48,15.76,68.62.36,4.99,5.79,6.58,9.44,8.83,0,0,12.26,6.64,12.26,6.64-4.18-2.04-8.34-4.11-12.47-6.24-2.07-1.07-4.13-2.13-6.16-3.3-2.15-1.05-3.68-3.69-3.9-5.81-4.28-17.36-12.57-51.62-16.67-69.03.36-.18,4.96-2.23,5.44-2.46,0,0,.14,0,.14,0l3.67-.14c8.11-.28,17.42.28,25.56.68,29.11,1.78,58.12,4.84,87.04,8.54h0Z"/>
        <path class="cls-36" d="M368.07,139.31c-4.36-4.51-9.27-10.1-15.9-10.59,0,0-3.88-.57-3.88-.57-12.89-1.82-26.01-3.59-38.93-4.93-20.76-2.6-41.78-2.69-62.46.37-11.11,3.17-23.78,7.2-31.51,16.62-1.39,1.86-2.23,4.09-2.52,6.44-3.43,24.23-6.03,48.6-8.91,72.91-.02.23-.03.22-.15.38,0,0-4.52,6.46-4.52,6.46.33-2.53,0,65.98.07,65.42,0,0-.59-.74-.59-.74,5.31,1.63,9.41,5.42,12.29,9.87,3.56,5.66,4.92,12.28,5.33,18.82.08,3.71.14,7.96.15,11.67.03,5.17-.05,10.35.32,15.46.22,1.71.17,3.66,1.14,5.05,15.1,1.05,40.44.19,55.89.3,4.3-.91,8.89-3.73,11.6-7.55,2.94-3.85,4.05-8.65,4.61-13.39.6-4.78.92-9.59,1.03-14.41.08-4.82,0-9.65-.39-14.46.45,4.8.6,9.63.58,14.46-.05,4.83-.3,9.66-.84,14.46-.5,4.76-1.56,9.73-4.52,13.69-2.85,3.98-7.15,6.89-12,7.98-18.14.27-36.27.79-54.41.33-.34-.03-.62,0-1.01-.07l-.55-.08c-.19-.04-.34,0-.62-.19-.46-.31-.66-.7-.81-1.03-.66-1.58-.78-3.31-.95-4.95-.42-5.21-.37-10.39-.44-15.56-.13-5.03.03-10.39-.57-15.41-1.12-9.77-6.25-20.33-16.17-23.48,0,0-.59-.17-.59-.17v-.57c.04-.31-.11-65.89-.08-66.16,0,0,.15-.22.15-.22l4.53-6.46c2.4-22.17,5.63-48.96,8.95-72.58.6-6.57,6.2-11,11.22-14.49,7.23-4.86,15.78-7.26,24.07-9.62,10.44-1.45,20.91-2,31.4-2.17,21.01.17,41.75,3.58,62.49,6.51,2.25.38,9.38,1.42,11.64,1.82,6.7.59,11.51,6.24,15.86,10.84h0Z"/>
        <path class="cls-36" d="M194.73,197.02c-23.37,4.21-55.34,9.7-78.74,13.68,0,0-26.28,4.38-26.28,4.38l.66-.77.05,21.44c0,13.64-.11,50.23-.16,64.32,0,0-.72-.68-.72-.68,11.57-.64,41.11-2.24,52.3-2.77,0,0,17.44-.84,17.44-.84l-17.41,1.31c-11.49.87-41.11,2.89-52.96,3.7-.04-14.69-.15-50.83-.16-65.05,0,0,.05-21.44.05-21.44v-.67s.66-.11.66-.11l26.3-4.26c23.43-3.72,55.51-8.76,78.98-12.25h0Z"/>
      </g>
    </g>
  </g>
</svg>